<svg viewBox="0 0 500 500" xmlns="http://www.w3.org/2000/svg" fill-rule="evenodd" clip-rule="evenodd" stroke-linejoin="round" stroke-miterlimit="1.414"><path d="M319.763 220.312c1.982 10.587 3.064 21.67 3.064 33.248 0 90.45-60.555 154.772-151.994 154.772C83.355 408.332 12.5 337.477 12.5 250S83.355 91.665 170.833 91.665c42.753 0 78.47 15.733 105.887 41.265l-44.637 44.634v-.1c-16.622-15.836-37.698-23.948-61.25-23.948-52.248 0-94.7 44.134-94.7 96.387 0 52.243 42.452 96.484 94.7 96.484 47.4 0 79.66-27.117 86.3-64.323h-86.3v-61.752h148.93zm118.257 9.896v-49.48h-39.583v49.48h-49.48v39.583h49.48v49.48h39.583v-49.48h49.48V230.21h-49.48z" fill="#fff" fill-rule="nonzero"/></svg>