<svg viewBox="0 0 500 500" xmlns="http://www.w3.org/2000/svg" fill-rule="evenodd" clip-rule="evenodd" stroke-linejoin="round" stroke-miterlimit="1.414"><path d="M433.205 12.503H66.785c-29.86 0-54.285 24.43-54.285 54.284v366.426c0 29.86 24.425 54.285 54.284 54.285H433.21c29.855 0 54.29-24.425 54.29-54.285V66.787c-.005-29.854-24.435-54.284-54.295-54.284zM165.95 211.547c14.774-31.614 46.847-53.528 84.048-53.528 37.2 0 69.268 21.913 84.047 53.527 5.565 11.913 8.69 25.19 8.69 39.21 0 51.217-41.52 92.736-92.737 92.736-51.22 0-92.743-41.52-92.743-92.737 0-14.018 3.13-27.296 8.695-39.21zm266.122 205.835c0 7.465-6.105 13.57-13.57 13.57H81.482c-7.465 0-13.57-6.105-13.57-13.57V211.547h40.32c-3.47 12.615-5.262 25.77-5.262 39.21 0 39.272 15.292 76.192 43.063 103.963 27.77 27.77 64.69 43.052 103.965 43.052 39.273 0 76.193-15.286 103.96-43.057 27.764-27.77 43.067-64.686 43.067-103.964 0-13.434-1.792-26.594-5.263-39.208h40.315v205.84h-.005zm0-275.95c0 9.953-8.14 18.098-18.093 18.098h-54.286c-9.953 0-18.098-8.145-18.098-18.098V87.147c0-9.953 8.145-18.098 18.098-18.098h54.29c9.953 0 18.093 8.144 18.093 18.097v54.285h-.005z" fill="#fff" fill-rule="nonzero"/></svg>