<svg viewBox="0 0 800 800" xmlns="http://www.w3.org/2000/svg" fill-rule="evenodd" clip-rule="evenodd" stroke-linecap="round" stroke-linejoin="round" stroke-miterlimit="1.414"><path d="M153.132 83.385c0 9.515 8.205 14.252 17.238 17.24 9.08 3.002 17.24 7.723 17.24 17.238" fill="none" stroke-width="7.08" stroke="#8C467A" transform="matrix(-10.676 0 0 10.249 2218.86 -632.366)"/><path d="M165.102 205.325c-10.993 0-19.918-8.925-19.918-19.918 0-10.993 13.28-16.943 19.918-19.918m0-39.838c10.993 0 19.918 8.925 19.918 19.92 0 10.992-13.278 16.942-19.918 19.917" fill="none" stroke-width="16.5" stroke="#FAAE36" transform="matrix(4.541 0 0 4.435 -349.72 -335.036)"/><path d="M161.457 68.63c-4.99 3.022-8.325 8.502-8.325 14.755 0 9.515 8.205 14.252 17.238 17.24 9.08 3.002 17.24 7.723 17.24 17.238 0 6.434-3.534 12.05-8.763 15.01" fill="none" stroke-width="7.73" stroke="#BE3EE6" transform="matrix(10.676 0 0 8.3503 -1418.86 -441.308)"/></svg>