<svg viewBox="0 0 480 360" xmlns="http://www.w3.org/2000/svg" fill-rule="evenodd" clip-rule="evenodd" stroke-linecap="round" stroke-linejoin="round" stroke-miterlimit="1.414"><path d="M153.132 83.385c0 9.515 8.205 14.252 17.238 17.24 9.08 3.002 17.24 7.723 17.24 17.238" fill="none" stroke-width="7.08" stroke="#8C467A" transform="matrix(-1.5856 0 0 1.522 510.47 -12.43)"/><path d="M165.102 205.325c-10.993 0-19.918-8.925-19.918-19.918 0-10.993 13.28-16.943 19.918-19.918m0-39.838c10.993 0 19.918 8.925 19.918 19.92 0 10.992-13.278 16.942-19.918 19.917" fill="none" stroke-width="16.5" stroke="#FAAE36" transform="matrix(.6744 0 0 .6587 128.99 31.73)"/><path d="M161.457 68.63c-4.99 3.022-8.325 8.502-8.325 14.755 0 9.515 8.205 14.252 17.238 17.24 9.08 3.002 17.24 7.723 17.24 17.238 0 6.434-3.534 12.05-8.763 15.01" fill="none" stroke-width="7.73" stroke="#BE3EE6" transform="matrix(1.5856 0 0 1.2402 -29.794 15.946)"/><text x="267.851" y="125.769" font-family="Avenir Next" font-size="12" font-weight="900" fill="#42354B" transform="matrix(2.966 0 0 2.966 -677.226 -141.417)">TRIPLE HELIX</text></svg>