<?xml version="1.0" standalone="no"?>
<!DOCTYPE svg PUBLIC "-//W3C//DTD SVG 1.1//EN" "http://www.w3.org/Graphics/SVG/1.1/DTD/svg11.dtd">
<svg width="100%" height="100%" viewBox="0 0 500 500" version="1.1" xmlns="http://www.w3.org/2000/svg" xmlns:xlink="http://www.w3.org/1999/xlink" xml:space="preserve" style="fill-rule:evenodd;clip-rule:evenodd;stroke-linejoin:round;stroke-miterlimit:1.41421;">
    <g transform="matrix(0.385849,0,0,0.385849,12.5,57.0754)">
        <path d="M1231.05,118.453C1196.77,169.444 1154.71,212.912 1104.88,248.856C1105.37,258.496 1105.62,269.392 1105.62,281.543C1105.62,349.058 1095.77,416.655 1076.09,484.334C1056.4,552.013 1026.33,616.794 985.872,678.677C945.415,740.56 897.224,795.382 841.298,843.145C785.372,890.908 718.146,928.991 639.621,957.395C561.096,985.799 476.938,1000 387.147,1000C247.014,1000 117.965,962.17 0,886.508C20.937,888.838 41.018,890.003 60.242,890.003C177.312,890.003 281.874,853.944 373.929,781.826C319.344,780.825 270.46,764.022 227.275,731.417C184.09,698.812 154.372,657.15 138.119,606.429C154.184,609.489 170.039,611.019 185.685,611.019C208.206,611.019 230.367,608.082 252.167,602.207C193.915,590.54 145.59,561.527 107.192,515.167C68.795,468.808 49.597,415.3 49.597,354.644L49.597,351.518C85.352,371.315 123.491,381.846 164.013,383.11C129.505,360.105 102.145,330.105 81.934,293.111C61.721,256.117 51.615,216.083 51.615,173.009C51.615,127.58 62.999,85.278 85.766,46.101C149.114,123.839 225.873,185.97 316.044,232.493C406.216,279.017 502.953,304.855 606.256,310.007C601.85,291.645 599.643,272.483 599.635,252.522C599.635,182.825 624.3,123.313 673.629,73.988C722.959,24.663 782.473,0 852.17,0C925.141,0 986.605,26.57 1036.56,79.711C1093.64,68.405 1147.09,47.955 1196.89,18.362C1177.7,78.755 1140.73,125.345 1085.96,158.13C1136.3,152.149 1184.66,138.923 1231.05,118.453L1231.05,118.453Z" style="fill:white;fill-rule:nonzero;"/>
    </g>
</svg>
