<svg viewBox="0 0 500 500" xmlns="http://www.w3.org/2000/svg" fill-rule="evenodd" clip-rule="evenodd" stroke-linejoin="round" stroke-miterlimit="1.414"><path d="M485.03 186.656c-2.804-33.574-5.028-44.474-11.953-58.468-9.165-18.536-22.417-28.31-41.288-30.458-14.6-1.665-69.502-4.003-120.32-5.134-87.965-1.95-232.594 1.808-251.06 6.532-8.53 2.19-14.936 5.9-21.6 12.524-11.67 11.62-18.627 28.283-21.42 51.325-6.388 52.63-6.525 116.203-.367 170.736 2.64 23.454 8.092 38.695 18.32 51.254 6.39 7.833 17.387 14.498 27.22 16.486 6.914 1.392 41.464 3.33 91.808 5.14 7.49.267 27.347.732 44.118 1.033 34.945.623 99.207.25 135.943-.778 24.71-.69 69.764-2.522 78.188-3.172 2.373-.18 7.86-.535 12.195-.78 14.588-.823 23.86-3.876 32.57-10.724 11.28-8.858 20.008-25.23 23.698-44.425 3.492-18.165 5.835-50.518 6.302-87.246.388-30.688-.135-47.25-2.353-73.845zm-284.62 131.59v-136.49l122.928 68.24-122.93 68.25z" fill="#fff" fill-rule="nonzero"/></svg>